<svg xmlns="http://www.w3.org/2000/svg" viewBox="0 0 1920.585 238.1"><defs><style>.a{fill:#00243a;}</style></defs><path class="a" d="M0,769.549H63.143V707.722H84.19v61.827h23.678V669.574h35.518v99.976H168.38V732.716L194.689,697.2l27.625,35.518v36.833h35.518V610.378h52.619V769.549h51.3V732.716h43.41v36.833H434.1V697.2l47.357-27.625,51.3,27.625v72.351h47.357V707.722H618.27v61.827h32.887V644.58h81.559v124.97H772.18V677.466h31.571v92.083h26.309V732.716h21.047v36.833H882.68V655.1H918.2V769.549h42.1V623.532h44.726V769.549h55.25V697.2l24.994-52.619,30.256,52.619v72.351h30.256V723.508h59.2v46.041h55.25V623.532H1318.1V769.549h30.256V723.508h34.2v46.041H1428.6V610.378h48.672V769.549h39.464V707.722h124.969v61.827h80.244V610.378h61.827V769.549h46.041V723.508h40.78v46.041h49.988v78.928L0,843.216Z" transform="translate(0 -610.378)"/></svg>